<?xml version="1.0" encoding="iso-8859-1"?>
<!-- Generator: Adobe Illustrator 17.1.0, SVG Export Plug-In . SVG Version: 6.00 Build 0)  -->
<!DOCTYPE svg PUBLIC "-//W3C//DTD SVG 1.1//EN" "http://www.w3.org/Graphics/SVG/1.1/DTD/svg11.dtd">
<svg version="1.1" id="Capa_1" xmlns="http://www.w3.org/2000/svg" xmlns:xlink="http://www.w3.org/1999/xlink" x="0px" y="0px"
	 viewBox="0 0 296.202 296.202" style="enable-background:new 0 0 296.202 296.202;" xml:space="preserve">
<g>
	<path style="fill:#78A0B4;" d="M209.726,244.179c-18.219,11.774-39.452,18.093-61.659,18.093
		c-30.427,0-59.032-11.849-80.547-33.362c-44.413-44.414-44.413-116.682,0-161.096c21.515-21.515,50.12-33.363,80.547-33.363
		s59.032,11.849,80.548,33.363c38.913,38.915,43.729,99.21,14.453,143.419l13.039,13.039c15.656-22.089,24.096-48.372,24.096-76.025
		c0.001-35.295-13.744-68.42-38.702-93.377c-24.956-24.958-58.138-38.646-93.433-38.646S79.59,29.969,54.633,54.927
		c-51.521,51.52-51.521,135.117,0,186.637c24.957,24.958,58.14,38.472,93.436,38.472h0.296c26.93,0,52.621-7.973,74.352-22.866
		L209.726,244.179z"/>
	<path style="fill:#FFFFFF;" d="M233.221,224.014c-1.481,1.665-3.013,3.3-4.607,4.895c-1.933,1.933-3.926,3.784-5.97,5.56
		l27.593,27.593l10.516-10.517L233.221,224.014z"/>
	<path d="M267.566,235.732c18.589-25.194,28.636-55.443,28.636-87.385c0.001-39.569-15.408-76.784-43.388-104.763
		c-27.979-27.98-65.179-43.418-104.747-43.418c-39.569,0-76.77,15.352-104.749,43.33c-57.758,57.76-57.758,151.623,0,209.382
		c27.979,27.979,65.18,43.157,104.75,43.157h0.331c31.209,0,60.935-9.57,85.804-27.379l10.376,10.376
		c1.501,1.5,3.535,2.343,5.657,2.343c2.122,0,4.156-0.843,5.657-2.344l21.829-21.83c3.124-3.124,3.124-8.189,0-11.313
		L267.566,235.732z M260.752,251.545l-10.516,10.517l-27.593-27.593c2.044-1.775,4.037-3.627,5.97-5.56
		c1.595-1.596,3.126-3.23,4.607-4.895L260.752,251.545z M148.068,280.036c-35.296,0-68.479-13.514-93.436-38.472
		c-51.521-51.52-51.521-135.117,0-186.637c24.957-24.958,58.14-38.703,93.435-38.703S216.544,29.912,241.5,54.87
		c24.958,24.957,38.703,58.082,38.702,93.377c0,27.653-8.439,53.937-24.096,76.025l-13.039-13.039
		c29.275-44.209,24.46-104.504-14.453-143.419c-21.516-21.515-50.121-33.363-80.548-33.363S89.034,46.299,67.52,67.814
		c-44.413,44.414-44.413,116.682,0,161.096c21.515,21.514,50.12,33.362,80.547,33.362c22.207,0,43.44-6.318,61.659-18.093
		l12.99,12.99c-21.73,14.894-47.422,22.866-74.352,22.866H148.068z M217.299,217.595c-18.492,18.492-43.079,28.677-69.232,28.677
		c-26.152,0-50.74-10.184-69.232-28.677c-38.175-38.175-38.175-100.292,0-138.467c18.492-18.493,43.079-28.678,69.232-28.678
		c26.152,0,50.74,10.185,69.233,28.678C255.475,117.304,255.475,179.42,217.299,217.595z"/>
	<path style="fill:#FFFFFF;" d="M217.3,79.128c-18.493-18.493-43.081-28.678-69.233-28.678c-26.153,0-50.74,10.185-69.232,28.678
		c-38.175,38.175-38.175,100.292,0,138.467c18.492,18.492,43.08,28.677,69.232,28.677c26.153,0,50.74-10.184,69.232-28.677
		C255.475,179.42,255.475,117.304,217.3,79.128z M88.388,208.041c-15.941-15.941-24.721-37.136-24.721-59.68
		c0-22.543,8.779-43.737,24.721-59.678c15.94-15.941,37.135-24.721,59.68-24.721c22.544,0,43.739,8.779,59.68,24.722
		c15.939,15.938,24.718,37.133,24.717,59.677c0,22.544-8.778,43.739-24.719,59.68c-15.94,15.939-37.135,24.719-59.678,24.719
		C125.523,232.759,104.329,223.98,88.388,208.041z"/>
	<path style="fill:#A56905;" d="M196.433,99.998c-12.918-12.92-30.095-20.035-48.365-20.035s-35.447,7.115-48.366,20.035
		c-12.92,12.918-20.034,30.094-20.034,48.363c0,18.271,7.115,35.446,20.035,48.365c12.918,12.918,30.095,20.033,48.365,20.033
		c18.27,0,35.445-7.115,48.363-20.033c12.919-12.918,20.033-30.095,20.033-48.365C216.465,130.09,209.351,112.915,196.433,99.998z"
		/>
	<path d="M207.745,208.041c15.94-15.94,24.719-37.136,24.719-59.68c0.001-22.544-8.777-43.738-24.717-59.677
		c-15.941-15.942-37.136-24.722-59.68-24.722c-22.545,0-43.739,8.779-59.68,24.721c-15.941,15.94-24.721,37.135-24.721,59.678
		c0,22.544,8.779,43.738,24.721,59.68c15.941,15.939,37.136,24.719,59.68,24.719C170.61,232.759,191.805,223.98,207.745,208.041z
		 M148.067,216.759c-18.271,0-35.447-7.115-48.365-20.033c-12.92-12.919-20.035-30.095-20.035-48.365
		c0-18.27,7.114-35.445,20.034-48.363c12.919-12.92,30.096-20.035,48.366-20.035s35.447,7.115,48.365,20.035
		c12.918,12.917,20.032,30.093,20.031,48.363c0,18.271-7.114,35.447-20.033,48.365C183.513,209.644,166.337,216.759,148.067,216.759
		z"/>
</g>
<g>
</g>
<g>
</g>
<g>
</g>
<g>
</g>
<g>
</g>
<g>
</g>
<g>
</g>
<g>
</g>
<g>
</g>
<g>
</g>
<g>
</g>
<g>
</g>
<g>
</g>
<g>
</g>
<g>
</g>
</svg>
